<svg width="38" height="38" viewBox="0 0 38 38" fill="none" xmlns="http://www.w3.org/2000/svg">
<circle cx="19" cy="19" r="19" fill="url(#paint0_linear_16:32)"/>
<path d="M24.5481 7.00499L21.6699 7C18.4362 7 16.3465 9.31828 16.3465 12.9064V15.6297H13.4526C13.2025 15.6297 13 15.8489 13 16.1193V20.065C13 20.3354 13.2027 20.5544 13.4526 20.5544H16.3465V30.5106C16.3465 30.781 16.549 31 16.7991 31H20.5749C20.825 31 21.0275 30.7808 21.0275 30.5106V20.5544H24.4112C24.6613 20.5544 24.8638 20.3354 24.8638 20.065L24.8652 16.1193C24.8652 15.9895 24.8174 15.8651 24.7326 15.7733C24.6479 15.6814 24.5324 15.6297 24.4123 15.6297H21.0275V13.3212C21.0275 12.2116 21.272 11.6483 22.6087 11.6483L24.5477 11.6475C24.7975 11.6475 25 11.4283 25 11.1582V7.49437C25 7.22446 24.7977 7.00549 24.5481 7.00499Z" fill="white"/>
<defs>
<linearGradient id="paint0_linear_16:32" x1="1.1777" y1="19" x2="36.5085" y2="19" gradientUnits="userSpaceOnUse">
<stop stop-color="#00B2FF"/>
<stop offset="1" stop-color="#8F00FF"/>
</linearGradient>
</defs>
</svg>
