<svg width="38" height="38" viewBox="0 0 38 38" fill="none" xmlns="http://www.w3.org/2000/svg">
<circle cx="19" cy="19" r="19" fill="#FF00A8"/>
<path d="M23.5862 9H14.4138C11.4286 9 9 11.4286 9 14.4138V23.5863C9 26.5714 11.4286 29 14.4138 29H23.5863C26.5714 29 29 26.5714 29 23.5863V14.4138C29 11.4286 26.5714 9 23.5862 9V9ZM19 24.4686C15.9846 24.4686 13.5314 22.0154 13.5314 19C13.5314 15.9846 15.9846 13.5314 19 13.5314C22.0154 13.5314 24.4686 15.9846 24.4686 19C24.4686 22.0154 22.0154 24.4686 19 24.4686V24.4686ZM24.5994 14.8211C23.7083 14.8211 22.9835 14.0963 22.9835 13.2052C22.9835 12.3141 23.7083 11.5891 24.5994 11.5891C25.4905 11.5891 26.2154 12.3141 26.2154 13.2052C26.2154 14.0963 25.4905 14.8211 24.5994 14.8211Z" fill="white"/>
<path d="M18.9992 14.704C16.6305 14.704 14.7031 16.6312 14.7031 19.0002C14.7031 21.3689 16.6305 23.2963 18.9992 23.2963C21.3682 23.2963 23.2953 21.3689 23.2953 19.0002C23.2953 16.6312 21.3682 14.704 18.9992 14.704V14.704Z" fill="white"/>
<path d="M24.5997 12.7616C24.3552 12.7616 24.1562 12.9606 24.1562 13.205C24.1562 13.4495 24.3552 13.6484 24.5997 13.6484C24.8443 13.6484 25.0432 13.4496 25.0432 13.205C25.0432 12.9604 24.8443 12.7616 24.5997 12.7616Z" fill="white"/>
</svg>
