<svg width="38" height="38" viewBox="0 0 38 38" fill="none" xmlns="http://www.w3.org/2000/svg">
<circle cx="19" cy="19" r="19" fill="#00D1FF"/>
<path d="M31.5 11.3677C30.5703 11.7692 29.5797 12.0354 28.5469 12.1646C29.6094 11.54 30.4203 10.5585 30.8016 9.37538C29.8109 9.95692 28.7172 10.3677 27.5516 10.5969C26.6109 9.61077 25.2703 9 23.8078 9C20.9703 9 18.6859 11.2677 18.6859 14.0477C18.6859 14.4477 18.7203 14.8323 18.8047 15.1985C14.5438 14.9938 10.7734 12.9831 8.24062 9.92C7.79844 10.6754 7.53906 11.54 7.53906 12.4708C7.53906 14.2185 8.45312 15.7677 9.81562 16.6646C8.99219 16.6492 8.18437 16.4138 7.5 16.0431C7.5 16.0585 7.5 16.0785 7.5 16.0985C7.5 18.5508 9.27656 20.5877 11.6062 21.0569C11.1891 21.1692 10.7344 21.2231 10.2625 21.2231C9.93437 21.2231 9.60312 21.2046 9.29219 21.1369C9.95625 23.1354 11.8406 24.6046 14.0813 24.6523C12.3375 25.9954 10.1234 26.8046 7.72656 26.8046C7.30625 26.8046 6.90312 26.7862 6.5 26.7354C8.77031 28.1769 11.4609 29 14.3625 29C23.7937 29 28.95 21.3077 28.95 14.64C28.95 14.4169 28.9422 14.2015 28.9312 13.9877C29.9484 13.2769 30.8031 12.3892 31.5 11.3677Z" fill="white"/>
</svg>
